<svg width="32" height="32" viewBox="0 0 32 32" fill="none" xmlns="http://www.w3.org/2000/svg">
<path d="M15.9998 15.3337C15.1158 15.3337 14.2679 14.9825 13.6428 14.3573C13.0177 13.7322 12.6665 12.8844 12.6665 12.0003C12.6665 11.1163 13.0177 10.2684 13.6428 9.6433C14.2679 9.01818 15.1158 8.66699 15.9998 8.66699C16.8839 8.66699 17.7317 9.01818 18.3569 9.6433C18.982 10.2684 19.3332 11.1163 19.3332 12.0003C19.3332 12.4381 19.247 12.8715 19.0794 13.2759C18.9119 13.6804 18.6664 14.0478 18.3569 14.3573C18.0473 14.6669 17.6799 14.9124 17.2754 15.0799C16.871 15.2474 16.4376 15.3337 15.9998 15.3337ZM15.9998 2.66699C13.5245 2.66699 11.1505 3.65032 9.40017 5.40066C7.64983 7.151 6.6665 9.52497 6.6665 12.0003C6.6665 19.0003 15.9998 29.3337 15.9998 29.3337C15.9998 29.3337 25.3332 19.0003 25.3332 12.0003C25.3332 9.52497 24.3498 7.151 22.5995 5.40066C20.8492 3.65032 18.4752 2.66699 15.9998 2.66699Z" fill="white"/>
</svg>
