<svg width="28" height="22" viewBox="0 0 28 22" fill="none" xmlns="http://www.w3.org/2000/svg">
<path d="M3.33341 21.6663C2.60008 21.6663 1.97253 21.4055 1.45075 20.8837C0.92897 20.3619 0.667637 19.7339 0.666748 18.9997V2.99967C0.666748 2.26634 0.928081 1.63879 1.45075 1.11701C1.97341 0.59523 2.60097 0.333897 3.33341 0.333008H24.6667C25.4001 0.333008 26.0281 0.594341 26.5507 1.11701C27.0734 1.63967 27.3343 2.26723 27.3334 2.99967V18.9997C27.3334 19.733 27.0725 20.361 26.5507 20.8837C26.029 21.4063 25.401 21.6672 24.6667 21.6663H3.33341ZM14.0001 12.0997C14.1112 12.0997 14.2281 12.0828 14.3507 12.049C14.4734 12.0152 14.5899 11.9655 14.7001 11.8997L24.1334 5.99967C24.3112 5.88856 24.4445 5.7499 24.5334 5.58367C24.6223 5.41745 24.6667 5.2339 24.6667 5.03301C24.6667 4.58856 24.4779 4.25523 24.1001 4.03301C23.7223 3.81079 23.3334 3.8219 22.9334 4.06634L14.0001 9.66634L5.06675 4.06634C4.66675 3.8219 4.27786 3.81656 3.90008 4.05034C3.5223 4.28412 3.33341 4.61167 3.33341 5.03301C3.33341 5.25523 3.37786 5.4499 3.46675 5.61701C3.55564 5.78412 3.68897 5.91167 3.86675 5.99967L13.3001 11.8997C13.4112 11.9663 13.5281 12.0166 13.6507 12.0503C13.7734 12.0841 13.8899 12.1006 14.0001 12.0997Z" fill="white"/>
</svg>
