<svg width="1176" height="1176" viewBox="0 0 1176 1176" fill="none" xmlns="http://www.w3.org/2000/svg">
<circle cx="568" cy="588" r="524" fill="white" stroke="#32694E" stroke-width="32"/>
<path d="M424.918 795.041C426.183 799.763 437.46 797.201 436.08 792.05C436.08 792.05 397.935 669.442 423.652 597.987C441.103 549.497 459.06 521.518 500.22 490.507C543.272 460.567 594.925 442.125 643.369 444.329C693.309 446.157 729.54 454.208 771.528 481.308C812.036 507.451 851.404 576.776 851.404 576.776C851.404 576.776 816.45 504.105 776.703 474.86C732.557 442.379 697.247 434.251 642.44 433.995C583.008 433.717 545.519 445.51 497.575 480.634C453.686 512.786 433.089 541.052 413.739 591.901C385.48 666.157 424.918 795.041 424.918 795.041Z" fill="url(#paint0_linear_296_160)"/>
<path d="M338.909 597.688C360.594 656.295 351.283 698.82 343.04 676.643C305.656 567.743 281.489 510.467 236.748 420.768C282.82 474.22 309.701 521.312 338.909 597.688Z" fill="url(#paint1_linear_296_160)"/>
<path d="M425.309 788.449C428.377 794.864 412.897 793.4 410.631 786.602C410.631 786.602 373.824 650.064 395.744 557.731C420.544 453.265 544.723 325.362 544.723 325.362C544.723 325.362 429.548 459.533 407.564 563.901C388.32 655.259 425.309 788.449 425.309 788.449Z" fill="url(#paint2_linear_296_160)"/>
<path d="M516.94 657.653C562.445 645.46 628.489 697.07 647.778 732.104C599.633 702.163 549.729 664.972 516.642 671.997C478.851 676.21 484.637 698.517 474.035 719.049C479.384 686.328 481.782 667.524 516.94 657.653Z" fill="url(#paint3_linear_296_160)"/>
<path d="M474.337 823.209C475.276 826.179 464.525 829.52 463.604 826.085C444.144 761.973 435.157 726.139 433.953 665.625C432.977 639.66 434.552 592.305 457.126 556.349C479.7 520.392 495.063 510.754 528.977 501.667C562.677 490.834 625.279 495.749 661.061 515.508C696.556 532.929 721.822 563.094 749 603.295C780.111 649.311 801.035 735.671 801.035 735.671C801.035 735.671 775.566 650.297 742.99 604.905C714.44 565.124 697.698 537.47 652.904 517.694C609.218 498.407 564.957 500.284 530.933 508.965C496.909 517.646 471.024 542.962 460.577 569.228C443.884 615.111 445.112 636.868 445.384 672.225C449.104 733.072 473.398 820.24 474.337 823.209Z" fill="url(#paint4_linear_296_160)"/>
<path d="M467.839 943.202L466.206 942.259C467.19 830.014 466.307 759.572 474.035 719.049C479.357 691.137 488.764 677.42 505.679 674.014C484.394 689.023 488.545 757.746 497.449 806.434L519.447 934.895C522.553 946.486 468.736 951.704 467.839 943.202Z" fill="url(#paint5_linear_296_160)"/>
<path d="M739.64 598.158C723.429 614.844 719.615 663.511 747.716 662.71C775.817 661.909 760.004 612.217 739.64 598.158Z" fill="url(#paint6_linear_296_160)"/>
<path d="M777.977 665.678C761.766 682.364 757.952 731.031 786.053 730.229C814.154 729.428 798.341 679.736 777.977 665.678Z" fill="url(#paint7_linear_296_160)"/>
<path d="M718.002 562.581C701.79 579.267 697.976 627.934 726.077 627.133C754.179 626.332 738.366 576.64 718.002 562.581Z" fill="url(#paint8_linear_296_160)"/>
<path d="M782.185 679.614C781.958 710.089 812.193 761.602 831.623 736.648C851.053 711.694 806.175 676.039 782.185 679.614Z" fill="url(#paint9_linear_296_160)"/>
<path d="M730.241 573.397C729.391 596.646 759.176 635.322 779.495 615.895C799.815 596.467 754.776 570.183 730.241 573.397Z" fill="url(#paint10_linear_296_160)"/>
<path d="M768.578 640.916C767.728 664.165 797.513 702.842 817.833 683.414C838.152 663.987 793.113 637.703 768.578 640.916Z" fill="url(#paint11_linear_296_160)"/>
<path d="M528.203 500.494C531.609 523.508 567.95 556.101 584.384 533.293C600.819 510.485 551.741 492.858 528.203 500.494Z" fill="url(#paint12_linear_296_160)"/>
<path d="M633.83 431.84C636.602 454.939 672.034 488.518 689.089 466.17C706.143 443.821 657.568 424.854 633.83 431.84Z" fill="url(#paint13_linear_296_160)"/>
<path d="M682.031 431.042C678.854 454.089 704.608 495.558 726.774 478.267C748.94 460.976 706.765 430.307 682.031 431.042Z" fill="url(#paint14_linear_296_160)"/>
<path d="M776.703 482.56C767.783 504.047 782.176 550.693 808.003 539.59C833.83 528.487 800.815 488.123 776.703 482.56Z" fill="url(#paint15_linear_296_160)"/>
<path d="M810.482 503.312C796.403 521.833 798.493 570.604 826.292 566.416C854.09 562.228 832.394 514.809 810.482 503.312Z" fill="url(#paint16_linear_296_160)"/>
<path d="M595.129 440.435C603.67 462.074 646.461 485.567 657.289 459.624C668.116 433.68 616.318 427.655 595.129 440.435Z" fill="url(#paint17_linear_296_160)"/>
<path d="M561.918 440.131C570.459 461.771 613.25 485.264 624.078 459.32C634.906 433.376 583.108 427.352 561.918 440.131Z" fill="url(#paint18_linear_296_160)"/>
<path d="M530.554 467.396C547.522 483.312 596.248 486.269 594.953 458.186C593.658 430.103 544.251 446.788 530.554 467.396Z" fill="url(#paint19_linear_296_160)"/>
<path d="M650.609 433.451C668.98 447.726 717.771 446.154 713.878 418.312C709.985 390.47 662.338 411.663 650.609 433.451Z" fill="url(#paint20_linear_296_160)"/>
<path d="M730.513 455.714C744.662 474.181 792.255 485.037 795.553 457.119C798.85 429.2 747.385 437.613 730.513 455.714Z" fill="url(#paint21_linear_296_160)"/>
<path d="M837.205 543.444C828.363 564.963 842.926 611.557 868.712 600.36C894.499 589.164 861.337 548.919 837.205 543.444Z" fill="url(#paint22_linear_296_160)"/>
<path d="M790.532 492.198C799.534 513.651 842.816 536.225 853.088 510.056C863.359 483.887 811.445 478.97 790.532 492.198Z" fill="url(#paint23_linear_296_160)"/>
<path d="M821.414 516.143C824.679 539.178 860.82 571.993 877.393 549.286C893.967 526.578 844.998 508.652 821.414 516.143Z" fill="url(#paint24_linear_296_160)"/>
<path d="M611.768 437.736C633.159 446.884 679.955 432.986 669.127 407.043C658.299 381.099 617.586 413.685 611.768 437.736Z" fill="url(#paint25_linear_296_160)"/>
<path d="M578.558 437.433C599.949 446.58 646.745 432.683 635.917 406.739C625.089 380.796 584.376 413.381 578.558 437.433Z" fill="url(#paint26_linear_296_160)"/>
<path d="M544.446 457.847C567.694 456.978 604.066 424.418 583.191 405.589C562.316 386.759 539.43 433.616 544.446 457.847Z" fill="url(#paint27_linear_296_160)"/>
<path d="M508.374 483.732C531.371 480.212 563.784 443.711 540.895 427.389C518.006 411.068 500.622 460.232 508.374 483.732Z" fill="url(#paint28_linear_296_160)"/>
<path d="M435.914 482.844C452.672 466.707 458.104 418.195 429.992 418.06C401.88 417.925 416.03 468.116 435.914 482.844Z" fill="url(#paint29_linear_296_160)"/>
<path d="M469.52 425.284C491.787 432.022 536.77 413.061 523.154 388.467C509.537 363.872 472.657 400.739 469.52 425.284Z" fill="url(#paint30_linear_296_160)"/>
<path d="M544.264 336.668C565.202 346.81 612.599 335.126 603.001 308.702C593.403 282.279 551.205 312.916 544.264 336.668Z" fill="url(#paint31_linear_296_160)"/>
<path d="M566.095 301.37C587.032 311.512 634.429 299.828 624.832 273.404C615.234 246.981 573.036 277.618 566.095 301.37Z" fill="url(#paint32_linear_296_160)"/>
<path d="M510.167 360.528C531.104 370.67 578.501 358.986 568.904 332.562C559.306 306.139 517.108 336.776 510.167 360.528Z" fill="url(#paint33_linear_296_160)"/>
<path d="M507.073 349.302C530.284 347.725 565.648 314.074 544.21 295.889C522.772 277.703 501.322 325.234 507.073 349.302Z" fill="url(#paint34_linear_296_160)"/>
<path d="M541.171 325.441C564.382 323.865 599.745 290.214 578.307 272.028C556.869 253.843 535.419 301.374 541.171 325.441Z" fill="url(#paint35_linear_296_160)"/>
<path d="M507.073 349.302C530.284 347.725 565.648 314.074 544.21 295.889C522.772 277.703 501.322 325.234 507.073 349.302Z" fill="url(#paint36_linear_296_160)"/>
<path d="M483.906 393.381C507.012 390.676 540.695 355.343 518.397 338.222C496.099 321.102 476.989 369.622 483.906 393.381Z" fill="url(#paint37_linear_296_160)"/>
<path d="M470.467 425.219C488.688 410.753 498.722 362.98 470.751 360.165C442.779 357.349 452.078 408.661 470.467 425.219Z" fill="url(#paint38_linear_296_160)"/>
<path d="M664.046 523.566C657.985 546.027 678.299 590.416 702.471 576.061C726.642 561.706 688.675 525.958 664.046 523.566Z" fill="url(#paint39_linear_296_160)"/>
<path d="M704.765 543.95C709.778 566.668 748.317 596.631 763.11 572.725C777.903 548.82 727.709 534.682 704.765 543.95Z" fill="url(#paint40_linear_296_160)"/>
<path d="M679.998 527.071C690.552 547.804 735.378 567.134 743.697 540.281C752.017 513.428 699.881 512.34 679.998 527.071Z" fill="url(#paint41_linear_296_160)"/>
<path d="M636.448 503.371C627.821 524.978 642.847 571.423 668.521 559.97C694.195 548.517 660.633 508.605 636.448 503.371Z" fill="url(#paint42_linear_296_160)"/>
<path d="M645.009 506.394C656.44 526.657 702.051 544.052 709.215 516.867C716.378 489.683 664.243 490.827 645.009 506.394Z" fill="url(#paint43_linear_296_160)"/>
<path d="M592.997 496.562C590.907 519.733 618.586 559.943 639.913 541.628C661.241 523.312 617.669 494.663 592.997 496.562Z" fill="url(#paint44_linear_296_160)"/>
<g filter="url(#filter0_d_296_160)">
<path d="M592.737 496.827C609.034 513.429 657.597 518.395 657.462 490.283C657.327 462.171 607.274 476.802 592.737 496.827Z" fill="url(#paint45_linear_296_160)"/>
</g>
<path d="M488.96 865.764C501.359 891.43 489.82 961.7 466.007 943.234C428.957 914.525 360.888 782.75 347.366 703.091C325.762 579.171 346.473 483.391 369.413 417.889C362.839 502.933 349.998 558.367 378.908 649.087C407.15 732.164 432.95 786.447 469.017 827.396C479.024 838.757 482.338 843.152 488.96 865.764Z" fill="url(#paint46_linear_296_160)"/>
<defs>
<filter id="filter0_d_296_160" x="582.96" y="469.341" width="78.9471" height="49.8755" filterUnits="userSpaceOnUse" color-interpolation-filters="sRGB">
<feFlood flood-opacity="0" result="BackgroundImageFix"/>
<feColorMatrix in="SourceAlpha" type="matrix" values="0 0 0 0 0 0 0 0 0 0 0 0 0 0 0 0 0 0 127 0" result="hardAlpha"/>
<feOffset dx="-2.66667" dy="1.77778"/>
<feGaussianBlur stdDeviation="3.55556"/>
<feComposite in2="hardAlpha" operator="out"/>
<feColorMatrix type="matrix" values="0 0 0 0 0.87451 0 0 0 0 0.643137 0 0 0 0 0.211765 0 0 0 1 0"/>
<feBlend mode="normal" in2="BackgroundImageFix" result="effect1_dropShadow_296_160"/>
<feBlend mode="normal" in="SourceGraphic" in2="effect1_dropShadow_296_160" result="shape"/>
</filter>
<linearGradient id="paint0_linear_296_160" x1="435.398" y1="796.374" x2="513.605" y2="478.639" gradientUnits="userSpaceOnUse">
<stop stop-color="#7C9520"/>
<stop offset="0.370192" stop-color="#DFDB57"/>
<stop offset="1" stop-color="#897140"/>
</linearGradient>
<linearGradient id="paint1_linear_296_160" x1="219.905" y1="412.857" x2="356.102" y2="658.419" gradientUnits="userSpaceOnUse">
<stop stop-color="#BEE938"/>
<stop offset="0.442308" stop-color="#589323"/>
<stop offset="1" stop-color="#2C5F0A"/>
</linearGradient>
<linearGradient id="paint2_linear_296_160" x1="400.368" y1="394.414" x2="559.596" y2="727.284" gradientUnits="userSpaceOnUse">
<stop stop-color="#D8D576"/>
<stop offset="1" stop-color="#6A881A"/>
</linearGradient>
<linearGradient id="paint3_linear_296_160" x1="665.195" y1="716.395" x2="476.156" y2="668.581" gradientUnits="userSpaceOnUse">
<stop stop-color="#BEFE3F"/>
<stop offset="1" stop-color="#98CC2C"/>
</linearGradient>
<linearGradient id="paint4_linear_296_160" x1="465.566" y1="814.517" x2="638.406" y2="508.235" gradientUnits="userSpaceOnUse">
<stop stop-color="#759933"/>
<stop offset="0.677822" stop-color="#E1DD58"/>
<stop offset="1" stop-color="#ACA448"/>
</linearGradient>
<linearGradient id="paint5_linear_296_160" x1="473.683" y1="970.164" x2="518.606" y2="686.194" gradientUnits="userSpaceOnUse">
<stop stop-color="#517818"/>
<stop offset="0.245192" stop-color="#57821C"/>
<stop offset="0.524038" stop-color="#527F13"/>
<stop offset="1" stop-color="#314C0F"/>
</linearGradient>
<linearGradient id="paint6_linear_296_160" x1="742.024" y1="599.433" x2="744.356" y2="661.245" gradientUnits="userSpaceOnUse">
<stop stop-color="#FFD665"/>
<stop offset="1" stop-color="#DFA436"/>
</linearGradient>
<linearGradient id="paint7_linear_296_160" x1="780.361" y1="666.953" x2="782.693" y2="728.765" gradientUnits="userSpaceOnUse">
<stop stop-color="#FFD665"/>
<stop offset="1" stop-color="#DFA436"/>
</linearGradient>
<linearGradient id="paint8_linear_296_160" x1="720.386" y1="563.856" x2="722.718" y2="625.668" gradientUnits="userSpaceOnUse">
<stop stop-color="#FFD665"/>
<stop offset="1" stop-color="#DFA436"/>
</linearGradient>
<linearGradient id="paint9_linear_296_160" x1="784.742" y1="678.827" x2="840.801" y2="721.643" gradientUnits="userSpaceOnUse">
<stop stop-color="#FFD665"/>
<stop offset="1" stop-color="#DFA436"/>
</linearGradient>
<linearGradient id="paint10_linear_296_160" x1="732.864" y1="572.745" x2="776.02" y2="617.059" gradientUnits="userSpaceOnUse">
<stop stop-color="#FFD665"/>
<stop offset="1" stop-color="#DFA436"/>
</linearGradient>
<linearGradient id="paint11_linear_296_160" x1="771.202" y1="640.265" x2="814.358" y2="684.579" gradientUnits="userSpaceOnUse">
<stop stop-color="#FFD665"/>
<stop offset="1" stop-color="#DFA436"/>
</linearGradient>
<linearGradient id="paint12_linear_296_160" x1="530.664" y1="499.375" x2="581.18" y2="535.072" gradientUnits="userSpaceOnUse">
<stop stop-color="#FFD665"/>
<stop offset="1" stop-color="#DFA436"/>
</linearGradient>
<linearGradient id="paint13_linear_296_160" x1="636.32" y1="430.789" x2="685.837" y2="467.86" gradientUnits="userSpaceOnUse">
<stop stop-color="#FFD665"/>
<stop offset="1" stop-color="#DFA436"/>
</linearGradient>
<linearGradient id="paint14_linear_296_160" x1="684.707" y1="430.657" x2="723.2" y2="479.077" gradientUnits="userSpaceOnUse">
<stop stop-color="#FFD665"/>
<stop offset="1" stop-color="#DFA436"/>
</linearGradient>
<linearGradient id="paint15_linear_296_160" x1="779.389" y1="482.867" x2="804.34" y2="539.467" gradientUnits="userSpaceOnUse">
<stop stop-color="#FFD665"/>
<stop offset="1" stop-color="#DFA436"/>
</linearGradient>
<linearGradient id="paint16_linear_296_160" x1="813.002" y1="504.289" x2="822.78" y2="565.368" gradientUnits="userSpaceOnUse">
<stop stop-color="#FFD665"/>
<stop offset="1" stop-color="#DFA436"/>
</linearGradient>
<linearGradient id="paint17_linear_296_160" x1="597.271" y1="438.786" x2="654.572" y2="462.084" gradientUnits="userSpaceOnUse">
<stop stop-color="#FFD665"/>
<stop offset="1" stop-color="#DFA436"/>
</linearGradient>
<linearGradient id="paint18_linear_296_160" x1="564.061" y1="438.482" x2="621.361" y2="461.78" gradientUnits="userSpaceOnUse">
<stop stop-color="#FFD665"/>
<stop offset="1" stop-color="#DFA436"/>
</linearGradient>
<linearGradient id="paint19_linear_296_160" x1="531.786" y1="464.99" x2="593.548" y2="461.571" gradientUnits="userSpaceOnUse">
<stop stop-color="#FFD665"/>
<stop offset="1" stop-color="#DFA436"/>
</linearGradient>
<linearGradient id="paint20_linear_296_160" x1="651.614" y1="430.942" x2="712.792" y2="421.813" gradientUnits="userSpaceOnUse">
<stop stop-color="#FFD665"/>
<stop offset="1" stop-color="#DFA436"/>
</linearGradient>
<linearGradient id="paint21_linear_296_160" x1="732.121" y1="453.541" x2="793.615" y2="460.23" gradientUnits="userSpaceOnUse">
<stop stop-color="#FFD665"/>
<stop offset="1" stop-color="#DFA436"/>
</linearGradient>
<linearGradient id="paint22_linear_296_160" x1="839.892" y1="543.741" x2="865.049" y2="600.25" gradientUnits="userSpaceOnUse">
<stop stop-color="#FFD665"/>
<stop offset="1" stop-color="#DFA436"/>
</linearGradient>
<linearGradient id="paint23_linear_296_160" x1="792.639" y1="490.504" x2="850.424" y2="512.574" gradientUnits="userSpaceOnUse">
<stop stop-color="#FFD665"/>
<stop offset="1" stop-color="#DFA436"/>
</linearGradient>
<linearGradient id="paint24_linear_296_160" x1="823.882" y1="515.039" x2="874.178" y2="551.045" gradientUnits="userSpaceOnUse">
<stop stop-color="#FFD665"/>
<stop offset="1" stop-color="#DFA436"/>
</linearGradient>
<linearGradient id="paint25_linear_296_160" x1="612.103" y1="435.054" x2="668.965" y2="410.704" gradientUnits="userSpaceOnUse">
<stop stop-color="#FFD665"/>
<stop offset="1" stop-color="#DFA436"/>
</linearGradient>
<linearGradient id="paint26_linear_296_160" x1="578.893" y1="434.75" x2="635.755" y2="410.401" gradientUnits="userSpaceOnUse">
<stop stop-color="#FFD665"/>
<stop offset="1" stop-color="#DFA436"/>
</linearGradient>
<linearGradient id="paint27_linear_296_160" x1="543.602" y1="455.279" x2="584.609" y2="408.968" gradientUnits="userSpaceOnUse">
<stop stop-color="#FFD665"/>
<stop offset="1" stop-color="#DFA436"/>
</linearGradient>
<linearGradient id="paint28_linear_296_160" x1="507.242" y1="481.276" x2="542.69" y2="430.585" gradientUnits="userSpaceOnUse">
<stop stop-color="#FFD665"/>
<stop offset="1" stop-color="#DFA436"/>
</linearGradient>
<linearGradient id="paint29_linear_296_160" x1="433.574" y1="481.491" x2="433.301" y2="419.636" gradientUnits="userSpaceOnUse">
<stop stop-color="#FFD665"/>
<stop offset="1" stop-color="#DFA436"/>
</linearGradient>
<linearGradient id="paint30_linear_296_160" x1="469.557" y1="422.581" x2="523.395" y2="392.124" gradientUnits="userSpaceOnUse">
<stop stop-color="#FFD665"/>
<stop offset="1" stop-color="#DFA436"/>
</linearGradient>
<linearGradient id="paint31_linear_296_160" x1="544.724" y1="334.004" x2="602.667" y2="312.352" gradientUnits="userSpaceOnUse">
<stop stop-color="#FFD665"/>
<stop offset="1" stop-color="#DFA436"/>
</linearGradient>
<linearGradient id="paint32_linear_296_160" x1="566.555" y1="298.706" x2="624.498" y2="277.054" gradientUnits="userSpaceOnUse">
<stop stop-color="#FFD665"/>
<stop offset="1" stop-color="#DFA436"/>
</linearGradient>
<linearGradient id="paint33_linear_296_160" x1="510.627" y1="357.864" x2="568.57" y2="336.212" gradientUnits="userSpaceOnUse">
<stop stop-color="#FFD665"/>
<stop offset="1" stop-color="#DFA436"/>
</linearGradient>
<linearGradient id="paint34_linear_296_160" x1="506.152" y1="346.76" x2="545.73" y2="299.224" gradientUnits="userSpaceOnUse">
<stop stop-color="#FFD665"/>
<stop offset="1" stop-color="#DFA436"/>
</linearGradient>
<linearGradient id="paint35_linear_296_160" x1="540.249" y1="322.9" x2="579.827" y2="275.363" gradientUnits="userSpaceOnUse">
<stop stop-color="#FFD665"/>
<stop offset="1" stop-color="#DFA436"/>
</linearGradient>
<linearGradient id="paint36_linear_296_160" x1="506.152" y1="346.76" x2="545.73" y2="299.224" gradientUnits="userSpaceOnUse">
<stop stop-color="#FFD665"/>
<stop offset="1" stop-color="#DFA436"/>
</linearGradient>
<linearGradient id="paint37_linear_296_160" x1="482.862" y1="390.887" x2="520.078" y2="341.479" gradientUnits="userSpaceOnUse">
<stop stop-color="#FFD665"/>
<stop offset="1" stop-color="#DFA436"/>
</linearGradient>
<linearGradient id="paint38_linear_296_160" x1="468.267" y1="423.648" x2="473.894" y2="362.049" gradientUnits="userSpaceOnUse">
<stop stop-color="#FFD665"/>
<stop offset="1" stop-color="#DFA436"/>
</linearGradient>
<linearGradient id="paint39_linear_296_160" x1="666.749" y1="523.522" x2="698.823" y2="576.413" gradientUnits="userSpaceOnUse">
<stop stop-color="#FFD665"/>
<stop offset="1" stop-color="#DFA436"/>
</linearGradient>
<linearGradient id="paint40_linear_296_160" x1="707.141" y1="542.661" x2="760.038" y2="574.725" gradientUnits="userSpaceOnUse">
<stop stop-color="#FFD665"/>
<stop offset="1" stop-color="#DFA436"/>
</linearGradient>
<linearGradient id="paint41_linear_296_160" x1="681.974" y1="525.226" x2="741.226" y2="542.987" gradientUnits="userSpaceOnUse">
<stop stop-color="#FFD665"/>
<stop offset="1" stop-color="#DFA436"/>
</linearGradient>
<linearGradient id="paint42_linear_296_160" x1="639.138" y1="503.641" x2="664.857" y2="559.897" gradientUnits="userSpaceOnUse">
<stop stop-color="#FFD665"/>
<stop offset="1" stop-color="#DFA436"/>
</linearGradient>
<linearGradient id="paint43_linear_296_160" x1="646.904" y1="504.467" x2="706.861" y2="519.677" gradientUnits="userSpaceOnUse">
<stop stop-color="#FFD665"/>
<stop offset="1" stop-color="#DFA436"/>
</linearGradient>
<linearGradient id="paint44_linear_296_160" x1="595.651" y1="496.051" x2="636.381" y2="542.605" gradientUnits="userSpaceOnUse">
<stop stop-color="#FFD665"/>
<stop offset="1" stop-color="#DFA436"/>
</linearGradient>
<linearGradient id="paint45_linear_296_160" x1="594.068" y1="494.473" x2="655.918" y2="493.607" gradientUnits="userSpaceOnUse">
<stop stop-color="#FFD665"/>
<stop offset="1" stop-color="#DFA436"/>
</linearGradient>
<linearGradient id="paint46_linear_296_160" x1="370.789" y1="467.673" x2="468.416" y2="971.116" gradientUnits="userSpaceOnUse">
<stop stop-color="#ADCA43"/>
<stop offset="0.507533" stop-color="#50971F"/>
<stop offset="0.658654" stop-color="#50911F"/>
<stop offset="0.868282" stop-color="#4F8E1E"/>
<stop offset="1" stop-color="#356013"/>
</linearGradient>
</defs>
</svg>
