<svg width="51" height="61" viewBox="0 0 51 61" fill="none" xmlns="http://www.w3.org/2000/svg">
<path d="M1.69245 1.01394V24.7853C3.81987 20.9548 5.61137 18.9269 8.97044 16.4484V8.22421C8.97044 7.77356 9.41832 7.32292 9.8662 7.32292H32.8199C44.6886 9.68879 43.7926 24.7853 32.8199 27.1511C30.5805 28.1651 30.5805 30.0803 32.8199 30.9816C48.3834 33.9108 45.3602 53.1757 32.8199 53.1757H8.29863C8.92548 44.5494 10.6526 40.0719 15.1287 32.4462C13.6998 38.9983 11.322 47.6553 10.8739 49.9085C10.4258 52.1617 11.3216 52.1617 12.7774 51.4858C21.5108 47.3173 28.9007 45.7401 29.5728 30.9816L30.5805 9.68879C9.86585 11.4914 -6.03335 29.6297 4.0438 48.6693C2.36829 52.986 2.14013 58.4707 2.70018 60.4986H32.8199C41.7774 60.4986 50.8469 53.1757 50.8469 42.3603C50.8469 37.5159 49.6152 32.5588 44.6886 29.6297C43.5689 29.179 43.5689 28.2778 44.6886 27.6018C47.1519 25.3486 48.9434 22.7574 48.9434 16.8991C48.9434 9.68879 41.8894 0 32.8199 0H2.70018C2.02836 0 1.69245 0.563302 1.69245 1.01394Z" fill="url(#paint0_linear_354_112)"/>
<defs>
<linearGradient id="paint0_linear_354_112" x1="4.5186" y1="60.4986" x2="62.1854" y2="23.0091" gradientUnits="userSpaceOnUse">
<stop stop-color="#1D6B2F"/>
<stop offset="0.484306" stop-color="#74B22D"/>
<stop offset="1" stop-color="#A0D238"/>
</linearGradient>
</defs>
</svg>
