<svg width="36" height="36" viewBox="0 0 36 36" fill="none" xmlns="http://www.w3.org/2000/svg">
<path d="M16.5 3H13.5C6 3 3 6 3 13.5V22.5C3 30 6 33 13.5 33H22.5C30 33 33 30 33 22.5V19.5" stroke="white" stroke-width="2.25" stroke-linecap="round" stroke-linejoin="round"/>
<path d="M24.0608 4.52989L12.2408 16.3499C11.7908 16.7999 11.3408 17.6849 11.2508 18.3299L10.6058 22.8449C10.3658 24.4799 11.5208 25.6199 13.1558 25.3949L17.6708 24.7499C18.3008 24.6599 19.1858 24.2099 19.6508 23.7599L31.4708 11.9399C33.5108 9.89989 34.4708 7.52989 31.4708 4.52989C28.4708 1.52989 26.1008 2.48989 24.0608 4.52989Z" stroke="white" stroke-width="2.25" stroke-miterlimit="10" stroke-linecap="round" stroke-linejoin="round"/>
<path d="M22.3652 6.22559C23.3702 9.81059 26.1752 12.6156 29.7752 13.6356" stroke="white" stroke-width="2.25" stroke-miterlimit="10" stroke-linecap="round" stroke-linejoin="round"/>
</svg>
