<svg width="36" height="36" viewBox="0 0 36 36" fill="none" xmlns="http://www.w3.org/2000/svg">
<path d="M30.7501 9H5.25" stroke="white" stroke-width="2.25" stroke-linecap="round"/>
<path d="M28.25 12.75L27.5601 23.0987C27.2946 27.081 27.1619 29.0722 25.8643 30.2861C24.5668 31.5 22.5712 31.5 18.58 31.5H17.42C13.4288 31.5 11.4332 31.5 10.1357 30.2861C8.83815 29.0722 8.7054 27.081 8.43991 23.0987L7.75 12.75" stroke="white" stroke-width="2.25" stroke-linecap="round"/>
<path d="M9.75 9C9.83382 9 9.87573 9 9.91372 8.99904C11.1489 8.96774 12.2385 8.18236 12.6588 7.02048C12.6718 6.98474 12.685 6.94498 12.7115 6.86546L12.8571 6.42857C12.9815 6.05562 13.0436 5.86913 13.1261 5.7108C13.455 5.07911 14.0636 4.64046 14.7669 4.52815C14.9432 4.5 15.1398 4.5 15.5329 4.5H20.4671C20.8602 4.5 21.0568 4.5 21.2331 4.52815C21.9364 4.64046 22.545 5.07911 22.8739 5.7108C22.9564 5.86913 23.0185 6.05561 23.1429 6.42857L23.2885 6.86546C23.315 6.94487 23.3283 6.98476 23.3412 7.02048C23.7615 8.18236 24.8511 8.96774 26.0863 8.99904C26.1243 9 26.1662 9 26.25 9" stroke="white" stroke-width="2.25"/>
</svg>
